<svg width="123" height="42" viewBox="0 0 123 42" fill="none" xmlns="http://www.w3.org/2000/svg">
<g filter="url(#filter0_d_33532_1322)">
<path d="M4 13.4232V16.0232H6.5V13.4232H4Z" fill="#756157" fill-opacity="0.3" shape-rendering="crispEdges"/>
<path d="M15.6 5.02319C14 5.02319 12.8 5.72319 12 6.72319H11.9V0.523193H9.9V16.0232H11.9V10.7232C11.9 8.62319 13.2 7.12319 15.2 7.12319C17 7.12319 18.1 8.52319 18.1 10.3232V16.0232H20.1V9.92319C20.2 6.92319 18.3 5.02319 15.6 5.02319Z" fill="#756157" fill-opacity="0.3" shape-rendering="crispEdges"/>
<path d="M30.6 5.32319H25.8V1.62319H23.8V5.42319H21.9V7.42319H23.8V13.4232C23.8 15.1232 24.8 16.1232 26.5 16.1232H30.6V14.1232H26.9C26.2 14.1232 25.8 13.7232 25.8 13.0232V7.32319H30.6V5.32319Z" fill="#756157" fill-opacity="0.3" shape-rendering="crispEdges"/>
<path d="M45.1 5.12319C43.5 5.12319 42.2 5.92319 41.6 7.22319H41.5C40.9 6.02319 39.7 5.12319 38.1 5.12319C36.7 5.12319 35.6 5.92319 35 6.92319H34.9V5.32319H33V15.9232H35V10.5232C35 8.52319 36 7.02319 37.6 7.02319C39.1 7.02319 40 8.02319 40 9.62319V15.9232H42V10.3232C42 7.92319 43.4 7.02319 44.6 7.02319C46.1 7.02319 47 8.02319 47 9.62319V15.9232H49V9.42319C49.1 6.92319 47.6 5.12319 45.1 5.12319Z" fill="#756157" fill-opacity="0.3" shape-rendering="crispEdges"/>
<path d="M51.8 13.2232C51.8 14.9232 52.8 15.9232 54.6 15.9232H56.6V13.9232H54.9C54.2 13.9232 53.8 13.5232 53.8 12.8232V0.523193H51.8V13.2232Z" fill="#756157" fill-opacity="0.3" shape-rendering="crispEdges"/>
<path d="M32.9 20.2232C32 19.1232 30.7 18.4232 29 18.4232C25.9 18.4232 23.6 20.7232 23.6 24.0232C23.6 27.3232 25.9 29.6232 29 29.6232C30.8 29.6232 32 28.8232 32.8 27.7232H32.9V29.3232H34.9V18.7232H32.9V20.2232ZM29.3 27.6232C27.1 27.6232 25.7 26.0232 25.7 24.0232C25.7 22.0232 27.1 20.4232 29.3 20.4232C31.5 20.4232 32.9 22.0232 32.9 24.0232C32.9 25.9232 31.5 27.6232 29.3 27.6232Z" fill="#756157" fill-opacity="0.3" shape-rendering="crispEdges"/>
<path d="M48.2 22.5232C47.7 20.1232 45.6 18.4232 42.8 18.4232C39.4 18.4232 37.2 20.9232 37.2 24.0232C37.2 27.1232 39.4 29.6232 42.8 29.6232C45.6 29.6232 47.7 27.8232 48.2 25.4232H46.1C45.7 26.7232 44.4 27.7232 42.8 27.7232C40.6 27.7232 39.2 26.1232 39.2 24.1232C39.2 22.1232 40.6 20.5232 42.8 20.5232C44.4 20.5232 45.6 21.5232 46.1 22.7232H48.2V22.5232Z" fill="#756157" fill-opacity="0.3" shape-rendering="crispEdges"/>
<path d="M59.1 20.2232C58.2 19.1232 56.9 18.4232 55.2 18.4232C52.1 18.4232 49.8 20.7232 49.8 24.0232C49.8 27.3232 52.1 29.6232 55.2 29.6232C57 29.6232 58.2 28.8232 59 27.7232H59.1V29.3232H61.1V18.7232H59.1V20.2232ZM55.5 27.6232C53.3 27.6232 51.9 26.0232 51.9 24.0232C51.9 22.0232 53.3 20.4232 55.5 20.4232C57.7 20.4232 59.1 22.0232 59.1 24.0232C59.1 25.9232 57.6 27.6232 55.5 27.6232Z" fill="#756157" fill-opacity="0.3" shape-rendering="crispEdges"/>
<path d="M72.7 20.3232C71.8 19.2232 70.5 18.4232 68.8 18.4232C65.7 18.4232 63.4 20.7232 63.4 24.0232C63.4 27.3232 65.6 29.6232 68.8 29.6232C70.5 29.6232 71.8 28.8232 72.6 27.8232H72.7V29.3232H74.7V13.9232H72.7V20.3232ZM69.1 27.6232C66.9 27.6232 65.5 26.0232 65.5 24.0232C65.5 22.0232 66.9 20.4232 69.1 20.4232C71.3 20.4232 72.7 22.0232 72.7 24.0232C72.6 26.0232 71.2 27.6232 69.1 27.6232Z" fill="#756157" fill-opacity="0.3" shape-rendering="crispEdges"/>
<path d="M82.3 18.4232C79 18.4232 76.8 20.9232 76.8 24.0232C76.8 27.0232 78.9 29.6232 82.3 29.6232C84.8 29.6232 86.8 28.3232 87.5 26.0232H85.4C84.9 27.0232 83.8 27.6232 82.4 27.6232C80.5 27.6232 79.1 26.3232 79 24.7232H87.8C88 21.1232 85.8 18.4232 82.3 18.4232ZM82.3 20.3232C84 20.3232 85.3 21.3232 85.6 22.9232H79.1C79.4 21.4232 80.6 20.3232 82.3 20.3232Z" fill="#756157" fill-opacity="0.3" shape-rendering="crispEdges"/>
<path d="M102.2 18.4232C100.6 18.4232 99.3 19.2232 98.6 20.4232H98.5C97.9 19.2232 96.7 18.4232 95.1 18.4232C93.7 18.4232 92.6 19.1232 92 20.2232V18.7232H90.1V29.3232H92.1V23.9232C92.1 21.9232 93.1 20.5232 94.7 20.4232C96.2 20.4232 97.1 21.4232 97.1 23.0232V29.3232H99.1V23.7232C99.1 21.3232 100.5 20.4232 101.7 20.4232C103.2 20.4232 104.1 21.4232 104.1 23.0232V29.3232H106.1V22.8232C106.2 20.2232 104.7 18.4232 102.2 18.4232Z" fill="#756157" fill-opacity="0.3" shape-rendering="crispEdges"/>
<path d="M113.4 27.5232L109.8 18.6232H107.6L112.4 30.2232C112.1 31.1232 111.7 31.4232 110.7 31.4232H108.2V33.4232H110.7C112.5 33.4232 113.5 32.6232 114.2 30.8232L118.9 18.6232H116.8L113.4 27.5232Z" fill="#756157" fill-opacity="0.3" shape-rendering="crispEdges"/>
</g>
<defs>
<filter id="filter0_d_33532_1322" x="0" y="0.523193" width="122.9" height="40.9" filterUnits="userSpaceOnUse" color-interpolation-filters="sRGB">
<feFlood flood-opacity="0" result="BackgroundImageFix"/>
<feColorMatrix in="SourceAlpha" type="matrix" values="0 0 0 0 0 0 0 0 0 0 0 0 0 0 0 0 0 0 127 0" result="hardAlpha"/>
<feOffset dy="4"/>
<feGaussianBlur stdDeviation="2"/>
<feComposite in2="hardAlpha" operator="out"/>
<feColorMatrix type="matrix" values="0 0 0 0 0 0 0 0 0 0 0 0 0 0 0 0 0 0 0.25 0"/>
<feBlend mode="normal" in2="BackgroundImageFix" result="effect1_dropShadow_33532_1322"/>
<feBlend mode="normal" in="SourceGraphic" in2="effect1_dropShadow_33532_1322" result="shape"/>
</filter>
</defs>
</svg>
